<?xml version="1.0" standalone="no"?>
<!DOCTYPE svg PUBLIC "-//W3C//DTD SVG 20010904//EN"
 "http://www.w3.org/TR/2001/REC-SVG-20010904/DTD/svg10.dtd">
<svg version="1.0" xmlns="http://www.w3.org/2000/svg"
 width="300.000000pt" height="222.000000pt" viewBox="0 0 300.000000 222.000000"
 preserveAspectRatio="xMidYMid meet">
<metadata>
Created by potrace 1.10, written by Peter Selinger 2001-2011
</metadata>
<g transform="translate(0.000000,222.000000) scale(0.100000,-0.100000)"
fill="#000000" stroke="none">
<path d="M440 1158 c0 -2 -1 -105 -3 -230 l-2 -226 38 -4 37 -4 0 81 c1 48 6
90 14 104 13 24 14 23 29 -30 9 -30 22 -75 29 -101 11 -45 14 -48 45 -48 42 0
49 3 44 15 -2 6 -21 69 -43 141 l-40 131 41 81 c23 45 41 84 41 87 0 4 -17 5
-37 3 -36 -3 -38 -5 -74 -88 -20 -47 -42 -91 -49 -97 -8 -10 -7 -13 4 -13 8 0
18 5 22 12 10 16 34 -19 34 -49 0 -21 -3 -22 -20 -13 -17 9 -25 6 -45 -14
l-25 -25 0 59 c0 49 3 58 15 54 13 -5 15 8 15 85 l0 91 -35 0 c-19 0 -35 -1
-35 -2z"/>
<path d="M710 931 l0 -230 95 -3 95 -3 0 38 0 38 -60 -7 -60 -7 0 202 0 201
-35 0 -35 0 0 -229z"/>
<path d="M955 1136 c-31 -31 -37 -81 -33 -243 3 -115 6 -135 24 -160 39 -52
122 -56 170 -8 23 24 24 28 24 195 0 225 -7 240 -111 240 -39 0 -55 -5 -74
-24z m103 -48 c14 -14 17 -295 3 -316 -4 -8 -19 -12 -32 -10 -24 3 -24 3 -27
157 -3 152 3 181 32 181 7 0 17 -5 24 -12z"/>
<path d="M1190 966 c0 -107 4 -206 10 -220 12 -31 58 -56 105 -56 27 0 44 8
66 29 l29 29 0 196 c0 108 1 199 3 204 1 4 -15 8 -35 10 l-38 3 -2 -198 -3
-198 -24 -3 c-13 -2 -28 2 -32 10 -5 7 -9 97 -9 201 l0 187 -35 0 -35 0 0
-194z"/>
<path d="M1450 930 l0 -230 81 0 c76 0 82 2 110 29 l29 29 0 161 c0 88 -4 171
-10 186 -13 35 -65 55 -145 55 l-65 0 0 -230z m138 148 c8 -8 12 -56 12 -149
0 -147 -8 -174 -52 -167 -19 3 -20 13 -21 166 l-2 162 26 0 c14 0 30 -5 37
-12z"/>
<path d="M1704 1118 c8 -54 35 -330 38 -380 l2 -38 51 0 51 0 12 143 c7 78 12
169 12 202 0 71 17 64 26 -10 4 -37 3 -46 -5 -35 -14 20 -14 19 4 -155 8 -77
15 -141 15 -142 0 -2 20 -3 44 -3 l45 0 5 43 c4 23 13 112 21 197 8 85 17 170
20 188 6 31 5 32 -29 32 l-34 0 -9 -97 c-4 -54 -7 -149 -6 -211 1 -90 -1 -111
-11 -103 -9 7 -15 58 -19 153 -4 79 -10 169 -13 201 l-7 58 -41 -3 -41 -3 -12
-145 c-7 -80 -10 -167 -7 -195 7 -77 -26 -105 -40 -34 -7 38 1 54 19 39 11 -9
12 -4 5 27 -5 21 -12 94 -16 163 -4 69 -8 130 -8 135 -1 6 -18 11 -39 13 l-38
3 5 -43z"/>
<path d="M2080 930 c0 -218 1 -230 19 -230 10 0 33 -3 50 -6 26 -5 31 -3 31
12 0 15 -2 16 -9 5 -16 -25 -23 68 -19 263 l3 186 -37 0 -38 0 0 -230z"/>
<path d="M2232 1140 c-27 -26 -36 -59 -29 -116 4 -38 14 -54 65 -108 62 -65
83 -107 65 -135 -13 -20 -42 -26 -56 -12 -5 5 -10 23 -11 38 -1 23 -6 29 -30
31 -40 5 -48 -8 -37 -58 12 -54 37 -79 84 -87 74 -12 127 35 127 112 0 54 -21
94 -84 157 -42 43 -56 65 -56 87 0 59 61 66 68 7 2 -17 9 -26 22 -26 10 0 26
-3 36 -7 15 -6 16 -1 11 43 -7 65 -39 94 -106 94 -34 0 -53 -6 -69 -20z"/>
<path d="M2450 931 l0 -230 100 -3 100 -3 0 38 0 39 -65 -6 -65 -5 0 69 0 70
65 0 65 0 -1 33 c-2 30 -2 30 -6 5 -2 -16 -9 -28 -15 -28 -6 0 -8 12 -4 30 l6
30 -55 0 -55 0 0 60 0 60 65 0 65 0 0 35 0 35 -100 0 -100 0 0 -229z m68 7 c2
-9 -4 -18 -13 -21 -11 -5 -15 0 -15 19 0 28 23 29 28 2z"/>
</g>
</svg>
